<svg width="19" height="20" viewBox="0 0 19 20" fill="none" xmlns="http://www.w3.org/2000/svg">
<path d="M11.2902 9.16392L12.7744 6.67169L16.7747 12.8379L16.7765 14.0212L16.7635 5.87822C16.754 5.67918 16.6472 5.49707 16.4768 5.3897L9.27484 1.28981C9.10639 1.20788 8.89272 1.20875 8.72458 1.29236C8.70188 1.30365 8.68049 1.31588 8.66011 1.32923L8.63502 1.34487L1.64431 5.35407L1.61716 5.36624C1.58229 5.38212 1.54704 5.4023 1.51393 5.42576C1.38141 5.51985 1.29336 5.65894 1.26489 5.81498C1.26062 5.83863 1.25749 5.86271 1.25598 5.88698L1.26696 12.5227L4.99304 6.80718C5.46215 6.04928 6.48427 5.80517 7.43309 5.81845L8.54672 5.84756L1.98523 16.2616L2.7587 16.7023L9.39883 5.85812L12.3338 5.84756L5.71075 16.9654L8.47071 18.5364L8.80046 18.7241C8.93994 18.7802 9.10438 18.783 9.24505 18.7328L16.5483 14.5442L15.152 15.345L11.2902 9.16392ZM11.8565 17.235L9.06888 12.9051L10.7705 10.0474L14.4315 15.7581L11.8565 17.235Z" fill="#2D374B"/>
<path d="M9.06891 12.9046L11.8565 17.2345L14.4316 15.7576L10.7706 10.0469L9.06891 12.9046Z" fill="#28A0F0"/>
<path d="M16.7766 14.0209L16.7747 12.8376L12.7744 6.67139L11.2903 9.16362L15.152 15.3447L16.5483 14.5439C16.6853 14.4339 16.7681 14.2723 16.7768 14.098L16.7766 14.0209Z" fill="#28A0F0"/>
<path d="M0.0134299 15.1373L1.98519 16.2617L8.54668 5.84773L7.43305 5.81862C6.48423 5.80534 5.46217 6.04945 4.993 6.80735L1.26691 12.5229L0.0133667 14.429V15.1373H0.0134299Z" fill="white"/>
<path d="M12.3337 5.84766L9.39886 5.85821L2.75873 16.7024L5.07962 18.0249L5.71078 16.9655L12.3337 5.84766Z" fill="white"/>
<path d="M18.0134 5.83251C17.9888 5.22506 17.6565 4.66894 17.1359 4.3452L9.83954 0.192624C9.32459 -0.0640218 8.68126 -0.0643322 8.16549 0.192438C8.10453 0.222851 1.06986 4.26054 1.06986 4.26054C0.972527 4.30672 0.878768 4.36177 0.790528 4.42421C0.32581 4.75385 0.0425275 5.26603 0.0134277 5.82879V14.4288L1.26697 12.5227L1.256 5.88694C1.2575 5.86267 1.26058 5.83884 1.2649 5.81525C1.29319 5.65909 1.3813 5.51982 1.51395 5.42572C1.54706 5.40226 8.70183 1.30362 8.7246 1.29232C8.8928 1.20872 9.10647 1.20785 9.27486 1.28978L16.4769 5.38966C16.6472 5.49704 16.7541 5.67914 16.7635 5.87819V14.0983C16.7548 14.2726 16.6852 14.4341 16.5482 14.5442L15.1519 15.3449L14.4315 15.7581L11.8565 17.235L9.245 18.7328C9.10433 18.7831 8.9399 18.7803 8.80042 18.7241L5.7107 16.9654L5.07954 18.0247L7.85618 19.6069C7.948 19.6585 8.02984 19.7043 8.09694 19.7417C8.20093 19.7994 8.27173 19.8379 8.29675 19.8499C8.49412 19.9448 8.77803 20 9.03391 20C9.26852 20 9.49724 19.9574 9.71374 19.8734L17.2988 15.5261C17.7342 15.1923 17.9903 14.6889 18.0134 14.1435V5.83251Z" fill="#96BEDC"/>
</svg>
