<svg width="28" height="28" viewBox="0 0 28 28" fill="none" xmlns="http://www.w3.org/2000/svg">
<path d="M14 28C6.26801 28 7.47816e-09 21.732 6.8343e-07 14C1.35938e-06 6.26801 6.26801 -1.89987e-06 14 -1.22392e-06C21.732 -5.47967e-07 28 6.26801 28 14C28 21.732 21.732 28 14 28Z" fill="url(#paint0_linear_171_1436)"/>
<path d="M7.87319 19.5785L12.6072 8.1331C12.8742 7.54134 13.2711 7.25268 13.7943 7.25268L14.2129 7.25269C14.7361 7.25269 15.133 7.54134 15.4 8.1331L17.4603 13.1197L19.0191 13.1197C19.4845 13.1233 19.8634 13.4986 19.867 13.9676L19.867 13.9785C19.8634 14.4439 19.4845 14.8228 19.0191 14.8264L18.1819 14.8264L20.1484 19.5785C20.1845 19.6831 20.2062 19.7913 20.2062 19.9032C20.2062 20.1702 20.1232 20.3795 19.9752 20.5419C19.8273 20.7042 19.6144 20.7836 19.3474 20.7836C19.1706 20.78 19.001 20.7259 18.8603 20.6212C18.7088 20.5166 18.6041 20.3651 18.5211 20.1919L16.3562 14.8228L14.8551 14.8228C14.3897 14.8192 14.0108 14.4439 14.0072 13.9748L14.0072 13.9532C14.0108 13.4877 14.3897 13.1089 14.8551 13.1053L15.6562 13.1053L14.0036 8.98825L9.50051 20.1883C9.41752 20.3614 9.31288 20.513 9.16133 20.6176C9.02061 20.7223 8.84741 20.7764 8.67422 20.78C8.40721 20.78 8.19793 20.7006 8.04638 20.5383C7.89484 20.3759 7.81545 20.1666 7.81545 19.8996C7.81185 19.7913 7.82989 19.6795 7.87319 19.5785Z" fill="white"/>
<defs>
<linearGradient id="paint0_linear_171_1436" x1="3.56117" y1="5.21767" x2="24.3932" y2="22.7457" gradientUnits="userSpaceOnUse">
<stop stop-color="#B6509E"/>
<stop offset="1" stop-color="#2EBAC6"/>
</linearGradient>
</defs>
</svg>
