<svg width="28" height="28" viewBox="0 0 28 28" fill="none" xmlns="http://www.w3.org/2000/svg">
<path d="M14 28C21.732 28 28 21.732 28 14C28 6.26801 21.732 0 14 0C6.26801 0 0 6.26801 0 14C0 21.732 6.26801 28 14 28Z" fill="#E84142"/>
<path d="M18.9386 14.3638C19.4236 13.526 20.2063 13.526 20.6913 14.3638L23.7118 19.6662C24.1968 20.504 23.8 21.1874 22.8299 21.1874H16.7449C15.7858 21.1874 15.389 20.504 15.863 19.6662L18.9386 14.3638ZM13.0961 4.15593C13.5811 3.31814 14.3528 3.31814 14.8378 4.15593L15.5102 5.36853L17.0976 8.15751C17.4835 8.95121 17.4835 9.88822 17.0976 10.6819L11.7732 19.9087C11.2882 20.6583 10.4835 21.1323 9.59055 21.1874H5.17008C4.2 21.1874 3.80315 20.515 4.28819 19.6662L13.0961 4.15593Z" fill="white"/>
</svg>
