<svg width="28" height="28" viewBox="0 0 28 28" fill="none" xmlns="http://www.w3.org/2000/svg">
<path d="M14 28.0068C21.7356 28.0068 28.0066 21.7358 28.0066 14.0001C28.0066 6.26441 21.7356 -0.0065918 14 -0.0065918C6.26429 -0.0065918 -0.00671387 6.26441 -0.00671387 14.0001C-0.00671387 21.7358 6.26429 28.0068 14 28.0068Z" fill="#F2BA2F"/>
<path d="M10.2186 12.4467L14 8.66522L17.7848 12.4467L19.9829 10.2486L14 4.26245L8.01721 10.2453L10.2186 12.4467Z" fill="white"/>
<path d="M6.46384 11.7986L8.66522 14L6.46384 16.2014L4.26245 14L6.46384 11.7986Z" fill="white"/>
<path d="M10.2185 15.5532L14 19.3347L17.7847 15.5532L19.9861 17.7513H19.9828L14 23.7374L8.01713 17.7546L8.01379 17.7513L10.2185 15.5532Z" fill="white"/>
<path d="M23.7375 14L21.5361 16.2014L19.3347 14L21.5361 11.7986L23.7375 14Z" fill="white"/>
<path d="M16.2314 13.9999L13.9999 11.7651L12.3497 13.4153L12.1593 13.6057L11.7685 13.9966L11.7651 13.9999L11.7685 14.0033L13.9999 16.2347L16.2314 13.9999H16.2347H16.2314Z" fill="white"/>
</svg>
