<svg width="28" height="28" viewBox="0 0 28 28" fill="none" xmlns="http://www.w3.org/2000/svg">
<path d="M14 28C21.732 28 28 21.732 28 14C28 6.26801 21.732 0 14 0C6.26801 0 0 6.26801 0 14C0 21.732 6.26801 28 14 28Z" fill="#627EEA"/>
<path d="M14.4363 3.49805V11.2597L20.9961 14.1913L14.4363 3.49805Z" fill="white" fill-opacity="0.602"/>
<path d="M14.4363 3.49805L7.87646 14.1913L14.4363 11.2597V3.49805Z" fill="white"/>
<path d="M14.4363 19.2202V24.4941L21 15.4121L14.4363 19.2202Z" fill="white" fill-opacity="0.602"/>
<path d="M14.4363 24.4941V19.2202L7.87646 15.4121L14.4363 24.4941Z" fill="white"/>
<path d="M14.4363 17.9995L20.9961 14.1914L14.4363 11.2598V17.9995Z" fill="white" fill-opacity="0.2"/>
<path d="M7.87646 14.1914L14.4363 17.9995V11.2598L7.87646 14.1914Z" fill="white" fill-opacity="0.602"/>
</svg>
