<svg width="28" height="28" viewBox="0 0 28 28" fill="none" xmlns="http://www.w3.org/2000/svg">
<path d="M13.9945 0C21.73 0 28 6.26874 28 14.0028C28 21.7368 21.73 28 14 28C6.26446 28 3.62835e-06 21.7313 3.62835e-06 14.0028C-0.00550601 6.26874 6.26446 0 13.9945 0Z" fill="#8247E5"/>
<mask id="mask0_171_1418" style="mask-type:luminance" maskUnits="userSpaceOnUse" x="4" y="6" width="20" height="17">
<path d="M23.0743 6.05396H4.72168V22.1334H23.0743V6.05396Z" fill="white"/>
</mask>
<g mask="url(#mask0_171_1418)">
<path d="M18.584 10.951C18.248 10.7582 17.8182 10.7582 17.438 10.951L14.7604 12.5375L12.9422 13.5455L10.3141 15.1265C9.97798 15.3193 9.54823 15.3193 9.16807 15.1265L7.11297 13.876C6.77688 13.6832 6.53997 13.2976 6.53997 12.868V10.4662C6.53997 10.0806 6.7328 9.70055 7.11297 9.45817L9.16807 8.25731C9.50415 8.06451 9.93391 8.06451 10.3141 8.25731L12.3692 9.50775C12.7053 9.70055 12.9422 10.0861 12.9422 10.5158V12.1023L14.7604 11.0446V9.4141C14.7604 9.02851 14.5675 8.64841 14.1873 8.40604L10.3637 6.14753C10.0276 5.95473 9.59782 5.95473 9.21765 6.14753L5.3003 8.45561C4.92013 8.64841 4.72729 9.03401 4.72729 9.4141V13.9256C4.72729 14.3112 4.92013 14.6913 5.3003 14.9337L9.17357 17.1922C9.50966 17.385 9.93942 17.385 10.3196 17.1922L12.9477 15.6553L14.7659 14.5977L17.394 13.0608C17.73 12.868 18.1598 12.868 18.54 13.0608L20.5951 14.2616C20.9311 14.4544 21.1681 14.84 21.1681 15.2697V17.6714C21.1681 18.057 20.9752 18.4371 20.5951 18.6795L18.5896 19.8804C18.2535 20.0732 17.8237 20.0732 17.4435 19.8804L15.3829 18.6795C15.0469 18.4867 14.8099 18.1011 14.8099 17.6714V16.1345L12.9918 17.1922V18.7787C12.9918 19.1643 13.1846 19.5443 13.5648 19.7867L17.438 22.0452C17.7741 22.238 18.2039 22.238 18.584 22.0452L22.4573 19.7867C22.7934 19.5939 23.0303 19.2083 23.0303 18.7787V14.2176C23.0303 13.832 22.8375 13.4519 22.4573 13.2095L18.584 10.951Z" fill="white"/>
</g>
</svg>
