<svg width="28" height="28" viewBox="0 0 28 28" fill="none" xmlns="http://www.w3.org/2000/svg">
<path d="M14 28C21.732 28 28 21.732 28 14C28 6.26801 21.732 0 14 0C6.26801 0 0 6.26801 0 14C0 21.732 6.26801 28 14 28Z" fill="#FF0420"/>
<path d="M9.91945 17.721C9.08584 17.721 8.40286 17.5248 7.87047 17.1325C7.34508 16.7333 7.08238 16.1659 7.08238 15.4303C7.08238 15.2762 7.09991 15.087 7.13491 14.8629C7.22602 14.3585 7.35561 13.7525 7.52372 13.045C8.00005 11.1186 9.22948 10.1554 11.2119 10.1554C11.7513 10.1554 12.2347 10.2465 12.662 10.4286C13.0893 10.6037 13.4256 10.8699 13.6707 11.2272C13.9159 11.5774 14.0385 11.9978 14.0385 12.4881C14.0385 12.6352 14.021 12.8209 13.9859 13.045C13.8809 13.6685 13.7548 14.2745 13.6077 14.8629C13.3625 15.8226 12.9387 16.5406 12.3362 17.017C11.7338 17.4863 10.9282 17.721 9.91945 17.721ZM10.0666 16.2079C10.4589 16.2079 10.7916 16.0923 11.0648 15.8611C11.345 15.6299 11.5447 15.2762 11.6637 14.7999C11.8249 14.1414 11.9475 13.5669 12.0315 13.0766C12.0595 12.9295 12.0735 12.7789 12.0735 12.6247C12.0735 11.9873 11.7408 11.6685 11.0753 11.6685C10.683 11.6685 10.3468 11.7841 10.0666 12.0153C9.7934 12.2465 9.59723 12.6002 9.47817 13.0766C9.35206 13.5459 9.22595 14.1204 9.09989 14.7999C9.07184 14.9399 9.05784 15.087 9.05784 15.2411C9.05784 15.8856 9.39412 16.2079 10.0666 16.2079Z" fill="white"/>
<path d="M14.521 17.6159C14.4439 17.6159 14.3843 17.5914 14.3423 17.5423C14.3073 17.4863 14.2968 17.4233 14.3108 17.3532L15.7609 10.5232C15.7749 10.4461 15.8134 10.3831 15.8765 10.334C15.9395 10.285 16.006 10.2605 16.0761 10.2605H18.8712C19.6487 10.2605 20.2722 10.4216 20.7415 10.7438C21.2179 11.0661 21.4561 11.5319 21.4561 12.1414C21.4561 12.3165 21.4351 12.4986 21.393 12.6878C21.2179 13.4934 20.8642 14.0888 20.3318 14.4741C19.8064 14.8594 19.0848 15.052 18.1671 15.052H16.7486L16.2653 17.3532C16.2512 17.4303 16.2127 17.4933 16.1497 17.5423C16.0866 17.5914 16.02 17.6159 15.95 17.6159H14.521ZM18.2407 13.602C18.5349 13.602 18.7906 13.5214 19.0078 13.3603C19.2319 13.1991 19.379 12.968 19.4491 12.6668C19.4701 12.5476 19.4806 12.4426 19.4806 12.3515C19.4806 12.1484 19.4211 11.9943 19.302 11.8892C19.1829 11.7771 18.9798 11.7211 18.6925 11.7211H17.4316L17.0323 13.602H18.2407Z" fill="white"/>
</svg>
