<svg width="512" height="512" viewBox="0 0 512 512" fill="none" xmlns="http://www.w3.org/2000/svg">
<rect width="362.039" height="362.039" rx="32" transform="matrix(0.70696 0.707254 -0.70696 0.707254 256 -0.213158)" fill="#0E1012"/>
<path d="M222.648 177.275C226.4 173.464 226.394 167.297 222.635 163.494C218.868 159.683 212.761 159.689 209.001 163.507L151.328 222.087C148.58 224.878 147.764 229.067 149.252 232.703C150.74 236.341 154.249 238.723 158.152 238.723H311.255C316.589 238.723 320.889 234.344 320.889 228.971C320.889 223.598 316.589 219.219 311.255 219.219H181.354L222.648 177.275ZM200.745 271.964C195.411 271.964 191.111 276.343 191.111 281.716C191.111 287.089 195.411 291.468 200.745 291.468H330.646L289.352 333.412C285.6 337.223 285.606 343.39 289.365 347.193C293.132 351.004 299.239 350.998 302.999 347.18L360.672 288.6C363.42 285.809 364.236 281.62 362.748 277.984C361.26 274.346 357.751 271.964 353.848 271.964H200.745Z" fill="white" stroke="white" stroke-width="2" stroke-miterlimit="10" stroke-linecap="round" stroke-linejoin="round"/>
</svg>
